<?xml version="1.0" encoding="utf-8"?>
<!-- Generator: Adobe Illustrator 19.0.0, SVG Export Plug-In . SVG Version: 6.00 Build 0)  -->
<svg version="1.1" id="Capa_1" xmlns="http://www.w3.org/2000/svg" xmlns:xlink="http://www.w3.org/1999/xlink" x="0px" y="0px"
	 viewBox="0 0 500 500" style="enable-background:new 0 0 500 500;" xml:space="preserve">
<style type="text/css">
	.st0{fill:#04933E;}
	.st1{fill:#F8C100;}
	.st2{fill:#2E2868;}
	.st3{fill:#FFFFFF;}
</style>
<g id="XMLID_2_">
	<g id="XMLID_3_">
		<path id="XMLID_73_" class="st0" d="M406.3,264.3c0,86.3-70,156.3-156.3,156.3c-86.4,0-156.4-70-156.4-156.3
			c0-86.3,70-156.3,156.4-156.3C336.4,107.9,406.3,177.9,406.3,264.3z"/>
		<g id="XMLID_4_">
			<path id="_x3C_Path_x3E__413_" class="st1" d="M106.7,264.3L250,355.8l143.3-91.5L250,172.7L106.7,264.3z"/>
			<g id="XMLID_5_">
				<path id="_x3C_Path_x3E__412_" class="st2" d="M250,202.9c33.9,0,61.3,27.5,61.3,61.4c0,33.9-27.5,61.4-61.3,61.4
					c-33.9,0-61.4-27.5-61.4-61.4C188.6,230.4,216.1,202.9,250,202.9z"/>
				<path id="XMLID_72_" class="st3" d="M311.1,270.4c-26.8-21.4-61.1-33.8-98.2-32.4c-6.5,0.2-13,0.9-19.3,2
					c-1.3,3-2.4,6.2-3.2,9.5c7.4-1.5,15-2.4,22.8-2.7c36.6-1.3,70.3,11.5,96.1,33.5C310.1,277.1,310.7,273.8,311.1,270.4z"/>
				<g id="XMLID_33_">
					<path id="XMLID_69_" class="st0" d="M195.4,244c-0.1-0.6-0.1-1.1,0.1-1.5c0.1-0.3,0.2-0.6,0.4-0.9c0.2-0.3,0.4-0.5,0.7-0.6
						c0.3-0.2,0.8-0.4,1.3-0.4c0.9-0.1,1.6,0,2.2,0.5c0.6,0.5,1,1.2,1.1,2.1c0.1,1,0,1.7-0.5,2.4c-0.4,0.6-1.1,1-2,1.1
						c-0.9,0.1-1.6-0.1-2.2-0.5C195.9,245.7,195.5,245,195.4,244z M196.6,243.8c0.1,0.7,0.3,1.2,0.7,1.5c0.3,0.3,0.8,0.4,1.2,0.4
						c0.5-0.1,0.9-0.3,1.1-0.7c0.3-0.4,0.3-0.9,0.2-1.6c-0.1-0.7-0.3-1.2-0.7-1.5c-0.4-0.3-0.8-0.4-1.3-0.3
						c-0.5,0.1-0.9,0.3-1.1,0.7C196.6,242.6,196.5,243.1,196.6,243.8z"/>
					<path id="XMLID_66_" class="st0" d="M203.8,245.9l-0.5-6l2.5-0.2c0.6-0.1,1.1,0,1.4,0c0.3,0.1,0.6,0.3,0.7,0.5
						c0.2,0.3,0.3,0.6,0.4,0.9c0,0.5-0.1,0.8-0.3,1.2c-0.3,0.3-0.6,0.5-1.1,0.6c0.3,0.1,0.5,0.3,0.7,0.4c0.2,0.2,0.4,0.5,0.7,0.9
						l0.9,1.1l-1.4,0.1l-1-1.2c-0.4-0.4-0.6-0.7-0.7-0.8c-0.1-0.1-0.3-0.2-0.4-0.2c-0.1,0-0.3-0.1-0.6,0l-0.2,0l0.2,2.5L203.8,245.9
						z M204.7,242.4l0.9-0.1c0.6,0,0.9-0.1,1.1-0.2c0.1-0.1,0.3-0.2,0.3-0.3c0.1-0.1,0.1-0.3,0.1-0.5c0-0.2-0.1-0.4-0.2-0.5
						c-0.1-0.1-0.3-0.2-0.5-0.2c-0.1,0-0.4,0-0.9,0.1l-0.9,0.1L204.7,242.4z"/>
					<path id="XMLID_63_" class="st0" d="M211.1,239.3l2.2-0.1c0.5,0,0.9,0,1.2,0.1c0.3,0.1,0.6,0.3,0.9,0.5c0.3,0.3,0.5,0.6,0.6,1
						c0.1,0.4,0.2,0.9,0.2,1.4c0,0.5,0,0.9-0.1,1.3c-0.1,0.4-0.3,0.8-0.6,1.1c-0.2,0.2-0.5,0.4-0.8,0.5c-0.3,0.1-0.6,0.1-1.1,0.2
						l-2.3,0.1L211.1,239.3z M212.3,240.3l0.1,4l0.9,0c0.3,0,0.6,0,0.7-0.1c0.2-0.1,0.3-0.2,0.5-0.3c0.1-0.1,0.2-0.3,0.3-0.6
						c0.1-0.3,0.1-0.6,0.1-1.1c0-0.5-0.1-0.8-0.2-1.1c-0.1-0.2-0.2-0.4-0.4-0.6c-0.2-0.1-0.3-0.2-0.6-0.3c-0.2,0-0.5,0-1,0
						L212.3,240.3z"/>
					<path id="XMLID_61_" class="st0" d="M218.6,245.1l0.1-6l4.4,0.1l0,1l-3.2-0.1l0,1.4l3,0l0,1l-3-0.1l0,1.6l3.4,0v1L218.6,245.1z
						"/>
					<path id="XMLID_59_" class="st0" d="M225.6,245.3l0.4-6l1.8,0.1l0.8,4.2l1.4-4l1.8,0.1l-0.4,6l-1.1-0.1l0.3-4.7l-1.5,4.6
						l-1.2-0.1l-0.8-4.8l-0.3,4.7L225.6,245.3z"/>
					<path id="XMLID_57_" class="st0" d="M237.6,246.4l0.9-5.9l4.4,0.7l-0.1,1l-3.2-0.5l-0.2,1.3l3,0.5l-0.2,1l-3-0.5l-0.2,1.6
						l3.3,0.5l-0.2,1L237.6,246.4z"/>
					<path id="XMLID_54_" class="st0" d="M248,248.2l1.4-5.9l1.9,0.4c0.7,0.2,1.2,0.3,1.4,0.4c0.3,0.2,0.6,0.4,0.7,0.8
						c0.2,0.3,0.2,0.8,0.1,1.2c-0.1,0.4-0.2,0.7-0.4,0.9c-0.2,0.2-0.4,0.4-0.6,0.5c-0.2,0.1-0.5,0.1-0.7,0.1c-0.3,0-0.7-0.1-1.2-0.2
						l-0.8-0.2l-0.5,2.2L248,248.2z M250.3,243.6l-0.4,1.7l0.6,0.1c0.5,0.1,0.8,0.2,0.9,0.1c0.2,0,0.3-0.1,0.5-0.2
						c0.1-0.1,0.2-0.2,0.2-0.4c0-0.2,0-0.4-0.1-0.6c-0.1-0.2-0.2-0.3-0.4-0.4c-0.1-0.1-0.4-0.1-0.8-0.2L250.3,243.6z"/>
					<path id="XMLID_51_" class="st0" d="M254.8,249.9l1.7-5.8l2.4,0.7c0.6,0.2,1,0.4,1.3,0.5c0.3,0.2,0.4,0.4,0.5,0.8
						c0.1,0.3,0.1,0.6,0,1c-0.1,0.4-0.4,0.8-0.7,1c-0.3,0.2-0.8,0.3-1.3,0.2c0.2,0.2,0.4,0.4,0.5,0.7c0.1,0.2,0.2,0.6,0.4,1.1
						l0.4,1.3l-1.4-0.4l-0.5-1.5c-0.2-0.5-0.3-0.9-0.4-1c-0.1-0.1-0.2-0.3-0.3-0.3c-0.1-0.1-0.3-0.2-0.6-0.2l-0.2-0.1l-0.7,2.4
						L254.8,249.9z M257,246.9l0.9,0.2c0.6,0.2,0.9,0.2,1.1,0.2c0.1,0,0.3-0.1,0.4-0.1c0.1-0.1,0.2-0.2,0.2-0.4
						c0.1-0.2,0.1-0.4,0-0.5c-0.1-0.1-0.2-0.3-0.4-0.3c-0.1,0-0.4-0.1-0.8-0.3l-0.9-0.3L257,246.9z"/>
					<path id="XMLID_48_" class="st0" d="M262.7,249.1c0.2-0.6,0.4-1,0.7-1.4c0.2-0.2,0.5-0.4,0.8-0.6c0.3-0.2,0.6-0.2,0.9-0.3
						c0.4,0,0.8,0.1,1.3,0.2c0.8,0.3,1.4,0.8,1.7,1.5c0.3,0.7,0.3,1.5,0,2.4c-0.3,0.9-0.8,1.5-1.5,1.9c-0.7,0.3-1.4,0.4-2.3,0.1
						c-0.8-0.3-1.4-0.8-1.7-1.5C262.3,250.8,262.3,250,262.7,249.1z M263.8,249.4c-0.2,0.6-0.2,1.2,0,1.6c0.2,0.4,0.5,0.7,1,0.9
						c0.5,0.2,0.9,0.1,1.3-0.1c0.4-0.2,0.7-0.7,1-1.3c0.2-0.6,0.3-1.2,0.1-1.6c-0.2-0.4-0.5-0.7-1-0.9c-0.5-0.1-0.9-0.1-1.3,0.1
						C264.4,248.4,264.1,248.8,263.8,249.4z"/>
					<path id="XMLID_46_" class="st0" d="M272.8,253.6l0.4-0.9l2.4,1l-0.9,2.2c-0.3,0.1-0.8,0.2-1.3,0.2c-0.5,0-1-0.1-1.5-0.3
						c-0.6-0.3-1-0.6-1.4-1c-0.3-0.4-0.5-0.9-0.5-1.4c0-0.5,0.1-1.1,0.3-1.6c0.2-0.6,0.6-1.1,1-1.4c0.4-0.4,0.9-0.6,1.5-0.6
						c0.4,0,0.9,0,1.4,0.3c0.7,0.3,1.2,0.6,1.4,1.1c0.3,0.5,0.3,0.9,0.2,1.5l-1.2-0.3c0-0.3,0-0.6-0.2-0.8c-0.2-0.2-0.4-0.5-0.7-0.6
						c-0.5-0.2-1-0.2-1.4,0c-0.4,0.2-0.7,0.6-1,1.2c-0.3,0.7-0.3,1.2-0.2,1.7c0.2,0.4,0.5,0.8,1,1c0.2,0.1,0.5,0.1,0.8,0.1
						c0.3,0,0.5,0,0.7-0.1l0.3-0.7L272.8,253.6z"/>
					<path id="XMLID_43_" class="st0" d="M276.6,257.7l2.6-5.4l2.3,1.1c0.6,0.3,1,0.5,1.2,0.7c0.2,0.2,0.4,0.5,0.4,0.8
						c0,0.3,0,0.6-0.2,1c-0.2,0.4-0.5,0.7-0.8,0.9c-0.4,0.1-0.8,0.1-1.3,0c0.2,0.2,0.3,0.5,0.4,0.7c0.1,0.2,0.1,0.6,0.2,1.2l0.1,1.4
						l-1.3-0.6l-0.2-1.6c-0.1-0.6-0.1-0.9-0.2-1.1c0-0.2-0.1-0.3-0.2-0.4c-0.1-0.1-0.3-0.2-0.5-0.3l-0.2-0.1l-1.1,2.3L276.6,257.7z
						 M279.2,255.1l0.8,0.4c0.5,0.2,0.9,0.4,1,0.4c0.2,0,0.3,0,0.4-0.1c0.1-0.1,0.2-0.2,0.3-0.3c0.1-0.2,0.1-0.4,0.1-0.5
						c0-0.2-0.1-0.3-0.3-0.4c-0.1-0.1-0.4-0.2-0.8-0.4l-0.9-0.4L279.2,255.1z"/>
					<path id="XMLID_41_" class="st0" d="M283.3,260.9l2.8-5.3l3.9,2.1l-0.5,0.9l-2.9-1.5l-0.6,1.2l2.7,1.4l-0.5,0.9l-2.7-1.4
						l-0.8,1.4l2.9,1.6l-0.5,0.9L283.3,260.9z"/>
					<path id="XMLID_39_" class="st0" d="M290.1,262.5l1.1,0.5c-0.1,0.4-0.2,0.7-0.1,1c0.1,0.3,0.3,0.5,0.6,0.7
						c0.3,0.2,0.6,0.3,0.9,0.3c0.3,0,0.4-0.1,0.6-0.3c0.1-0.1,0.1-0.2,0.1-0.4c0-0.1-0.1-0.3-0.2-0.4c-0.1-0.1-0.3-0.4-0.7-0.7
						c-0.5-0.5-0.8-0.9-0.9-1.2c-0.1-0.5-0.1-0.9,0.2-1.3c0.2-0.3,0.4-0.5,0.7-0.6c0.3-0.1,0.6-0.2,1-0.1c0.3,0.1,0.7,0.2,1.1,0.4
						c0.6,0.4,1,0.8,1.2,1.3c0.2,0.5,0.1,1-0.2,1.4l-1.1-0.6c0.1-0.3,0.1-0.5,0.1-0.8c-0.1-0.2-0.3-0.4-0.6-0.6
						c-0.3-0.2-0.6-0.3-0.8-0.2c-0.2,0-0.3,0.1-0.4,0.2c-0.1,0.1-0.1,0.3,0,0.4c0.1,0.2,0.3,0.5,0.7,0.9c0.4,0.4,0.7,0.8,0.9,1
						c0.2,0.3,0.2,0.6,0.2,0.9c0,0.3-0.1,0.6-0.3,0.9c-0.2,0.3-0.4,0.5-0.7,0.7c-0.3,0.2-0.7,0.2-1.1,0.1c-0.3,0-0.8-0.2-1.2-0.5
						c-0.6-0.4-1-0.8-1.2-1.4C289.8,263.6,289.8,263.1,290.1,262.5z"/>
					<path id="XMLID_37_" class="st0" d="M296.1,266.2l1,0.6c-0.2,0.4-0.2,0.7-0.1,1c0.1,0.3,0.3,0.5,0.6,0.7
						c0.3,0.2,0.6,0.3,0.9,0.3c0.2,0,0.4-0.1,0.6-0.3c0.1-0.1,0.1-0.2,0.1-0.3c0-0.1-0.1-0.3-0.2-0.5c-0.1-0.1-0.3-0.4-0.6-0.7
						c-0.5-0.5-0.7-0.9-0.8-1.3c-0.1-0.5,0-0.9,0.2-1.3c0.2-0.2,0.4-0.4,0.7-0.6c0.3-0.1,0.6-0.1,1-0.1c0.3,0.1,0.7,0.2,1.1,0.5
						c0.6,0.4,1,0.9,1.1,1.4c0.1,0.5,0.1,1-0.2,1.4l-1-0.6c0.1-0.3,0.2-0.5,0.1-0.7c-0.1-0.2-0.2-0.4-0.5-0.6
						c-0.3-0.2-0.5-0.3-0.8-0.3c-0.2,0-0.3,0.1-0.4,0.2c-0.1,0.1-0.1,0.3,0,0.4c0,0.2,0.3,0.5,0.7,1c0.4,0.4,0.7,0.8,0.8,1.1
						c0.2,0.3,0.2,0.6,0.2,0.9c0,0.3-0.1,0.6-0.3,0.9c-0.2,0.3-0.5,0.5-0.8,0.6c-0.3,0.1-0.7,0.2-1,0.1c-0.4-0.1-0.8-0.3-1.2-0.6
						c-0.6-0.4-1-0.9-1.2-1.4C295.7,267.3,295.8,266.8,296.1,266.2z"/>
					<path id="XMLID_34_" class="st0" d="M302.6,269.4c0.4-0.5,0.8-0.8,1.1-1.1c0.3-0.2,0.6-0.3,0.9-0.3c0.3,0,0.6,0,0.9,0
						c0.4,0.1,0.8,0.3,1.2,0.6c0.7,0.5,1.1,1.2,1.2,1.9c0.1,0.8-0.2,1.5-0.8,2.3c-0.6,0.8-1.2,1.2-2,1.3c-0.8,0.1-1.5-0.1-2.2-0.6
						c-0.7-0.5-1.1-1.2-1.2-1.9C301.8,270.9,302,270.1,302.6,269.4z M303.6,270.1c-0.4,0.5-0.6,1.1-0.6,1.5c0,0.5,0.2,0.8,0.6,1.1
						c0.4,0.3,0.8,0.4,1.3,0.3c0.4-0.1,0.9-0.4,1.3-1c0.4-0.5,0.6-1.1,0.6-1.5c0-0.5-0.3-0.8-0.6-1.1c-0.4-0.3-0.8-0.4-1.3-0.3
						C304.5,269.2,304,269.5,303.6,270.1z"/>
				</g>
				<polygon id="XMLID_32_" class="st3" points="269.5,241 270.1,242.7 271.9,242.7 270.4,243.8 271,245.5 269.5,244.4 268,245.5 
					268.6,243.8 267.1,242.7 268.9,242.7 				"/>
				<polygon id="XMLID_31_" class="st3" points="250.3,290.6 250.8,292.3 252.6,292.3 251.2,293.3 251.7,295.1 250.3,294 
					248.8,295.1 249.4,293.3 247.9,292.3 249.7,292.3 				"/>
				<polygon id="XMLID_30_" class="st3" points="293.8,284.5 294.4,286.2 296.2,286.2 294.8,287.3 295.3,289.1 293.8,288 
					292.3,289.1 292.9,287.3 291.4,286.2 293.2,286.2 				"/>
				<polygon id="XMLID_29_" class="st3" points="302.4,285.9 302.8,287 304,287 303,287.7 303.4,288.9 302.4,288.2 301.5,288.9 
					301.8,287.7 300.9,287 302.1,287 				"/>
				<polygon id="XMLID_28_" class="st3" points="296.3,290.3 296.8,291.8 298.4,291.8 297.1,292.8 297.6,294.3 296.3,293.4 
					295,294.3 295.5,292.8 294.2,291.8 295.8,291.8 				"/>
				<polygon id="XMLID_27_" class="st3" points="292.5,295.4 293,296.9 294.6,296.9 293.3,297.8 293.8,299.3 292.5,298.4 
					291.2,299.3 291.7,297.8 290.4,296.9 292,296.9 				"/>
				<polygon id="XMLID_26_" class="st3" points="287.6,299 287.9,300.2 289.1,300.2 288.2,300.9 288.6,302.1 287.6,301.4 
					286.6,302.1 286.9,300.9 286,300.2 287.2,300.2 				"/>
				<polygon id="XMLID_25_" class="st3" points="281.1,297.8 281.5,298.9 282.7,298.9 281.7,299.6 282.1,300.8 281.1,300.1 
					280.1,300.8 280.5,299.6 279.5,298.9 280.7,298.9 				"/>
				<polygon id="XMLID_24_" class="st3" points="274.2,299.9 274.6,301.2 275.8,301.2 274.8,301.9 275.2,303.2 274.2,302.4 
					273.1,303.2 273.5,301.9 272.5,301.2 273.8,301.2 				"/>
				<polygon id="XMLID_23_" class="st3" points="281.2,310 281.6,311.2 282.8,311.2 281.8,311.9 282.2,313.1 281.2,312.4 
					280.2,313.1 280.6,311.9 279.6,311.2 280.8,311.2 				"/>
				<polygon id="XMLID_22_" class="st3" points="268.7,304.7 269.2,306.3 270.9,306.3 269.5,307.3 270,308.8 268.7,307.9 
					267.3,308.8 267.8,307.3 266.5,306.3 268.2,306.3 				"/>
				<polygon id="XMLID_21_" class="st3" points="263.9,298.3 264.3,299.5 265.6,299.5 264.5,300.3 264.9,301.5 263.9,300.7 
					262.9,301.5 263.2,300.3 262.2,299.5 263.5,299.5 				"/>
				<polygon id="XMLID_20_" class="st3" points="281.4,303.3 281.9,304.9 283.5,304.9 282.2,305.8 282.7,307.3 281.4,306.4 
					280.1,307.3 280.6,305.8 279.3,304.9 280.9,304.9 				"/>
				<polygon id="XMLID_19_" class="st3" points="250.2,313.2 250.4,313.7 250.9,313.7 250.5,314.1 250.6,314.6 250.2,314.3 
					249.7,314.6 249.9,314.1 249.4,313.7 250,313.7 				"/>
				<polygon id="XMLID_18_" class="st3" points="266.5,259.6 266.9,260.9 268.2,260.9 267.1,261.7 267.5,262.9 266.5,262.2 
					265.4,262.9 265.8,261.7 264.8,260.9 266.1,260.9 				"/>
				<polygon id="XMLID_17_" class="st3" points="250.2,273.2 250.7,274.5 252,274.5 250.9,275.3 251.3,276.7 250.2,275.8 
					249.1,276.7 249.5,275.3 248.4,274.5 249.8,274.5 				"/>
				<polygon id="XMLID_16_" class="st3" points="257.4,278.7 257.9,280.2 259.4,280.2 258.2,281 258.7,282.5 257.4,281.6 
					256.2,282.5 256.7,281 255.5,280.2 257,280.2 				"/>
				<polygon id="XMLID_15_" class="st3" points="244,278.9 244.3,280.1 245.5,280.1 244.6,280.8 244.9,281.9 244,281.2 243,281.9 
					243.4,280.8 242.4,280.1 243.6,280.1 				"/>
				<polygon id="XMLID_14_" class="st3" points="247,284 247.2,284.8 248,284.8 247.4,285.2 247.6,286 247,285.5 246.3,286 
					246.6,285.2 245.9,284.8 246.7,284.8 				"/>
				<polygon id="XMLID_13_" class="st3" points="199.3,251.7 199.9,253.4 201.7,253.4 200.2,254.5 200.8,256.2 199.3,255.1 
					197.8,256.2 198.4,254.5 196.9,253.4 198.7,253.4 				"/>
				<polygon id="XMLID_12_" class="st3" points="226.1,265.6 226.6,267 228.1,267 226.9,267.9 227.4,269.3 226.1,268.5 224.9,269.3 
					225.4,267.9 224.2,267 225.7,267 				"/>
				<polygon id="XMLID_11_" class="st3" points="204.8,277.7 205.4,279.5 207.2,279.5 205.7,280.6 206.3,282.3 204.8,281.2 
					203.4,282.3 203.9,280.6 202.5,279.5 204.3,279.5 				"/>
				<polygon id="XMLID_10_" class="st3" points="210.9,275.1 211.2,276 212.1,276 211.3,276.5 211.6,277.4 210.9,276.9 210.2,277.4 
					210.4,276.5 209.7,276 210.6,276 				"/>
				<polygon id="XMLID_9_" class="st3" points="217.9,284.3 218.3,285.7 219.9,285.7 218.6,286.6 219.1,288.1 217.9,287.2 
					216.6,288.1 217.1,286.6 215.8,285.7 217.4,285.7 				"/>
				<polygon id="XMLID_8_" class="st3" points="225.2,295.7 225.7,297.4 227.6,297.4 226.1,298.5 226.7,300.2 225.2,299.1 
					223.7,300.2 224.3,298.5 222.8,297.4 224.6,297.4 				"/>
				<polygon id="XMLID_7_" class="st3" points="215.8,290.5 216.3,291.9 217.9,291.9 216.6,292.9 217.1,294.3 215.8,293.4 
					214.6,294.3 215.1,292.9 213.8,291.9 215.4,291.9 				"/>
				<polygon id="XMLID_6_" class="st3" points="197.1,284 197.5,285.2 198.7,285.2 197.8,285.9 198.1,287 197.1,286.3 196.2,287 
					196.5,285.9 195.6,285.2 196.8,285.2 				"/>
			</g>
		</g>
	</g>
</g>
</svg>
